# xmcd CD database file
#
# Track frame offsets:
#	150
#	42113
#	91339
#	131116
#	168953
#	215415
#	259091
#	290646
#
# Disc length: 4284 seconds
#
# Revision: 0
# Processed by: cddbd v1.5.1PL0 Copyright (c) Steve Scherf et al.
# Submitted via: CDex 1.50
#
DISCID=7210ba08
DTITLE=Dave Holland Quintet - Points of view
DYEAR=1998
DGENRE=Jazz
TTITLE0=The balance
TTITLE1=Mr. B
TTITLE2=Bedouin trail
TTITLE3=Metamorphos
TTITLE4=Ario
TTITLE5=Herbaceous
TTITLE6=The benevolent one
TTITLE7=Serenade
EXTD=YEAR: 1998
EXTT0=
EXTT1=
EXTT2=
EXTT3=
EXTT4=
EXTT5=
EXTT6=
EXTT7=
PLAYORDER=
